<svg width="30" height="24" viewBox="0 0 30 24" fill="none" xmlns="http://www.w3.org/2000/svg">
<path d="M26.7692 3.69231H22.524L20.3077 0H9.23077L7.01538 3.69231H2.76923C1.84615 3.69231 0 4.61538 0 6.43292V21.2308C0 22.7603 1.38462 24 2.57723 24H26.8274C28.0394 24 29.5394 22.7022 29.5394 21.2603V6.46154C29.5394 5.53846 28.6154 3.69231 26.7692 3.69231ZM27.6923 21.2603C27.6923 21.6249 27.1025 22.1345 26.8274 22.1548H2.58277C2.36862 22.1372 1.84708 21.7209 1.84708 21.2317V6.43385C1.84708 5.84862 2.63262 5.55415 2.77015 5.53938H8.06123L10.2766 1.84708H19.3246L20.9723 4.644L21.48 5.53938H26.7702C27.4209 5.53938 27.684 6.38954 27.6932 6.46246V21.2612L27.6923 21.2603ZM14.7692 6.46154C11.2006 6.46154 8.30769 9.35446 8.30769 12.9231C8.30769 16.4917 11.2006 19.3846 14.7692 19.3846C18.3378 19.3846 21.2308 16.4917 21.2308 12.9231C21.2308 9.35446 18.3378 6.46154 14.7692 6.46154ZM14.7692 17.5385C12.2243 17.5385 10.1538 15.468 10.1538 12.9231C10.1538 10.3782 12.2243 8.30769 14.7692 8.30769C17.3142 8.30769 19.3846 10.3782 19.3846 12.9231C19.3846 15.468 17.3142 17.5385 14.7692 17.5385Z" fill="#09C61C"/>
</svg>
