<svg width="36" height="26" viewBox="0 0 36 26" fill="none" xmlns="http://www.w3.org/2000/svg">
<path d="M25.1704 5.79999C29.1469 9.77645 29.1469 16.2235 25.1704 20.1999M10.7705 20.1999C6.79409 16.2234 6.79409 9.77628 10.7705 5.79992M5.97054 24.9998C-0.656847 18.3725 -0.656847 7.62739 5.97054 1M29.9705 1.00008C36.5978 7.62747 36.5978 18.3725 29.9705 25M21.3646 13C21.3646 14.8744 19.8451 16.3941 17.9705 16.3941C16.0959 16.3941 14.5764 14.8744 14.5764 13C14.5764 11.1254 16.0959 9.60586 17.9705 9.60586C19.8451 9.60586 21.3646 11.1254 21.3646 13Z" stroke="#09C61C" stroke-width="2" stroke-linecap="round" stroke-linejoin="round"/>
</svg>
