<svg width="30" height="30" viewBox="0 0 30 30" fill="none" xmlns="http://www.w3.org/2000/svg">
<path d="M28.9525 17.88C28.531 18.386 28.0035 18.7933 27.4074 19.0733C26.8112 19.3532 26.1608 19.4988 25.5022 19.5L18.6616 19.5L19.5017 21.645C19.8511 22.5841 19.9675 23.594 19.8408 24.5881C19.7141 25.5821 19.3482 26.5306 18.7744 27.3521C18.2006 28.1736 17.4361 28.8437 16.5463 29.3049C15.6566 29.7661 14.6683 30.0046 13.6662 29.9999C13.3776 29.9993 13.0954 29.9155 12.8532 29.7586C12.6111 29.6016 12.4194 29.3781 12.3011 29.1149L8.0257 19.5L4.50039 19.5C3.30681 19.5 2.16212 19.0259 1.31814 18.1819C0.474148 17.338 1.20701e-06 16.1934 1.31134e-06 15L2.22928e-06 4.49999C2.33362e-06 3.30652 0.47415 2.16193 1.31814 1.31802C2.16212 0.474106 3.30682 2.19644e-06 4.50039 2.30079e-06L23.5971 3.97027e-06C24.6499 0.000353107 25.6692 0.369767 26.4778 1.04396C27.2863 1.71816 27.8329 2.65448 28.0224 3.68999L29.9276 14.19C30.0454 14.8389 30.0192 15.5058 29.8507 16.1435C29.6822 16.7811 29.3755 17.3739 28.9525 17.88ZM7.50065 2.99999L4.50039 2.99999C4.10253 2.99999 3.72097 3.15803 3.43964 3.43933C3.15831 3.72064 3.00026 4.10217 3.00026 4.49999L3.00026 15C3.00026 15.3978 3.15831 15.7793 3.43964 16.0606C3.72097 16.3419 4.10253 16.5 4.50039 16.5L7.50065 16.5L7.50065 2.99999ZM27.0023 14.73L25.0972 4.22999C25.0333 3.88056 24.8474 3.56514 24.5727 3.33989C24.298 3.11465 23.9523 2.9942 23.5971 3L10.5009 3L10.5009 17.685L14.5813 26.8649C15.0013 26.7425 15.3913 26.5343 15.7269 26.2536C16.0624 25.9728 16.336 25.6255 16.5305 25.2337C16.7251 24.8419 16.8362 24.414 16.857 23.977C16.8779 23.54 16.8079 23.1035 16.6514 22.695L15.8564 20.55C15.687 20.0966 15.6298 19.6089 15.6897 19.1287C15.7496 18.6484 15.9248 18.1897 16.2004 17.7919C16.476 17.394 16.8438 17.0687 17.2724 16.8437C17.7009 16.6187 18.1776 16.5008 18.6616 16.5L25.5022 16.5C25.7226 16.5003 25.9404 16.4521 26.14 16.3588C26.3396 16.2655 26.5163 16.1293 26.6573 15.96C26.8018 15.793 26.9077 15.5962 26.9673 15.3835C27.027 15.1709 27.0389 14.9477 27.0023 14.73Z" fill="#09C61C"/>
</svg>
