<svg width="30" height="30" viewBox="0 0 30 30" fill="none" xmlns="http://www.w3.org/2000/svg">
<path fill-rule="evenodd" clip-rule="evenodd" d="M27.4074 19.0732C28.0036 18.7933 28.531 18.386 28.9525 17.88C29.3756 17.3739 29.6822 16.7811 29.8507 16.1434C30.0192 15.5058 30.0455 14.8389 29.9276 14.19L28.0225 3.68997C27.833 2.65445 27.2864 1.71813 26.4778 1.04393C25.6693 0.369734 24.6499 0.000322588 23.5971 -2.84563e-05L4.5004 -3.01257e-05C3.30682 -3.02301e-05 2.16212 0.474074 1.31814 1.31799C0.474149 2.1619 2.33362e-06 3.30649 2.22928e-06 4.49996L1.31135e-06 15C1.20701e-06 16.1934 0.474148 17.338 1.31814 18.1819C2.16212 19.0258 3.30682 19.4999 4.5004 19.4999L4.92754 19.4999L6.2686 17.8907C7.01741 16.9921 7.42749 15.8594 7.42749 14.6897L7.42749 9.74999L7.42749 4.81023C7.42749 3.64055 7.01741 2.50789 6.2686 1.60931L4.92749 -1.86443e-05L7.9275 -1.8382e-05L9.2686 1.60931C10.0174 2.50789 10.4275 3.64055 10.4275 4.81023L10.4275 14.9902C10.4275 16.2799 9.92912 17.5198 9.03649 18.4507L8.03035 19.5L8.02573 19.5L12.3011 29.1149C12.4194 29.3781 12.6111 29.6016 12.8532 29.7586C13.0954 29.9155 13.3776 29.9993 13.6662 29.9999C14.6683 30.0046 15.6567 29.7661 16.5464 29.3049C17.4361 28.8437 18.2006 28.1736 18.7744 27.3521C19.3482 26.5306 19.7142 25.5821 19.8408 24.5881C19.9675 23.594 19.8511 22.5841 19.5017 21.6449L18.6616 19.4999L25.5022 19.4999C26.1609 19.4988 26.8112 19.3532 27.4074 19.0732Z" fill="#09C61C"/>
</svg>
