<svg width="12" height="9" viewBox="0 0 12 9" fill="none" xmlns="http://www.w3.org/2000/svg">
<path d="M1.99293 0.34583C1.7792 0.128676 1.48692 0.00431717 1.18039 0.000110291C0.873866 -0.00409659 0.578205 0.112194 0.358449 0.323399C0.138693 0.534603 0.0128435 0.823421 0.00858619 1.12632C0.0043289 1.42921 0.122012 1.72137 0.335748 1.93853L2.99178 4.50703L0.335748 7.07553C0.229361 7.1798 0.144919 7.30385 0.0872934 7.44053C0.0296681 7.57721 0 7.72381 0 7.87188C0 8.01995 0.0296681 8.16655 0.0872934 8.30323C0.144919 8.43991 0.229361 8.56396 0.335748 8.66823C0.441266 8.77335 0.566804 8.8568 0.705122 8.91374C0.843439 8.97068 0.991797 9 1.14164 9C1.29148 9 1.43984 8.97068 1.57815 8.91374C1.71647 8.8568 1.84201 8.77335 1.94753 8.66823L5.3527 5.30338C5.45909 5.19911 5.54353 5.07506 5.60115 4.93838C5.65878 4.8017 5.68845 4.6551 5.68845 4.50703C5.68845 4.35896 5.65878 4.21236 5.60115 4.07568C5.54353 3.939 5.45909 3.81495 5.3527 3.71068L1.99293 0.34583ZM11.6409 3.71068L8.23574 0.34583C8.02201 0.134626 7.73212 0.0159722 7.42985 0.0159722C7.12758 0.0159722 6.8377 0.134626 6.62396 0.34583C6.41023 0.557035 6.29015 0.84349 6.29015 1.14218C6.29015 1.44087 6.41023 1.72732 6.62396 1.93853L9.23459 4.50703L6.62396 7.07553C6.51757 7.1798 6.43313 7.30385 6.37551 7.44053C6.31788 7.57721 6.28821 7.72381 6.28821 7.87188C6.28821 8.01995 6.31788 8.16655 6.37551 8.30323C6.43313 8.43991 6.51757 8.56396 6.62396 8.66823C6.72948 8.77335 6.85502 8.8568 6.99334 8.91374C7.13165 8.97068 7.28001 9 7.42985 9C7.57969 9 7.72805 8.97068 7.86637 8.91374C8.00469 8.8568 8.13022 8.77335 8.23574 8.66823L11.6409 5.30338C11.7503 5.2021 11.8383 5.08041 11.8999 4.94533C11.9615 4.81025 11.9953 4.66446 11.9995 4.51638C12.0038 4.3683 11.9783 4.22085 11.9245 4.08257C11.8707 3.94428 11.7898 3.81788 11.6863 3.71068H11.6409Z" fill="black"/>
</svg>
