<svg width="24" height="24" viewBox="0 0 24 24" fill="none" xmlns="http://www.w3.org/2000/svg">
<path fill-rule="evenodd" clip-rule="evenodd" d="M5.00281 13.2H2.4V10.8H5.00281L6.20281 12L5.00281 13.2ZM7.9056 10.2973L7.89959 10.3031L5.99639 8.4H2.39639H0V15.6H2.39639H5.99639L9.60361 11.9941L7.9056 10.2973ZM21.6 13.2H18.9972L17.7972 12L18.9972 10.8H21.6V13.2ZM21.6036 8.4H18.0036L14.3964 12.0059L16.0944 13.7027L16.1004 13.6969L18.0036 15.6H21.6036H24V8.4H21.6036ZM13.2 19.0008V21.6H10.8V19.0008L12 17.8008L13.2 19.0008ZM10.2996 16.0969L10.3044 16.1027L8.4 18.0059V21.6059V24H15.6V21.6059V18.0059L11.9952 14.4L10.2996 16.0969ZM10.8 5.00625V2.4H13.2V5.00625L12 6.20625L10.8 5.00625ZM13.7064 7.90898L13.6992 7.90313L15.6 6V2.4V0H8.4V2.4V6L12.0072 9.60586L13.7064 7.90898Z" fill="#09C61C"/>
</svg>
