<svg width="31" height="31" viewBox="0 0 31 31" fill="none" xmlns="http://www.w3.org/2000/svg">
<path fill-rule="evenodd" clip-rule="evenodd" d="M27.4799 11.4268C28.076 11.7067 28.6035 12.114 29.025 12.62C29.4481 13.1261 29.7547 13.7189 29.9232 14.3566C30.0917 14.9942 30.1179 15.6611 30.0001 16.31L28.0949 26.81C27.9054 27.8455 27.3589 28.7818 26.5503 29.456C25.7417 30.1302 24.7224 30.4997 23.6696 30.5H4.5729C3.37932 30.5 2.23463 30.0259 1.39064 29.182C0.546657 28.3381 0.0725098 27.1935 0.0725098 26V15.5C0.0725098 14.3066 0.546657 13.162 1.39064 12.3181C2.23463 11.4742 3.37932 11.0001 4.5729 11.0001H5.00003L6.34109 12.6093C7.0899 13.5079 7.49998 14.6406 7.49998 15.8102V20.75V25.6897C7.49998 26.8594 7.0899 27.9921 6.34109 28.8907L4.99998 30.5H7.99998L9.34109 28.8907C10.0899 27.9921 10.5 26.8594 10.5 25.6897V15.5098C10.5 14.2201 10.0016 12.9802 9.10897 12.0493L8.10283 11H8.09823L12.3736 1.38507C12.4919 1.1219 12.6836 0.898427 12.9257 0.741456C13.1679 0.584485 13.4501 0.500674 13.7387 0.500072C14.7408 0.495416 15.7291 0.733907 16.6189 1.19509C17.5086 1.65626 18.2731 2.32637 18.8469 3.14791C19.4207 3.96945 19.7867 4.91792 19.9133 5.91194C20.04 6.90596 19.9236 7.91588 19.5742 8.85506L18.7341 11.0001H25.5747C26.2334 11.0012 26.8837 11.1468 27.4799 11.4268Z" fill="#09C61C"/>
</svg>
