<svg width="153" height="30" viewBox="0 0 153 30" fill="none" xmlns="http://www.w3.org/2000/svg">
<path d="M50.5481 29.1571C49.2567 29.1571 48.1056 28.9606 47.0949 28.5675C46.0843 28.1558 45.2327 27.6037 44.5402 26.9112C43.8664 26.2187 43.3517 25.4232 42.9961 24.5249C42.6405 23.6265 42.4627 22.6813 42.4627 21.6894C42.4627 20.2669 42.7715 18.9662 43.3892 17.7871C44.0068 16.5892 44.9145 15.6347 46.1124 14.9235C47.3102 14.1936 48.7888 13.8286 50.5481 13.8286C52.3074 13.8286 53.786 14.1842 54.9838 14.8954C56.1816 15.6066 57.0894 16.5424 57.707 17.7028C58.3246 18.8632 58.6334 20.1266 58.6334 21.4928C58.6334 21.7736 58.6147 22.0637 58.5773 22.3631C58.5586 22.6439 58.5305 22.8966 58.4931 23.1212H48.1337C48.1711 23.6452 48.3115 24.0757 48.5548 24.4126C48.8168 24.7307 49.135 24.9647 49.5093 25.1144C49.9024 25.2641 50.3048 25.339 50.7165 25.339C51.2967 25.339 51.8395 25.208 52.3448 24.946C52.8689 24.6839 53.2151 24.319 53.3836 23.8511L57.9035 25.1425C57.5105 25.9286 56.9583 26.6211 56.2471 27.22C55.5546 27.8189 54.7311 28.2962 53.7766 28.6518C52.8221 28.9887 51.7459 29.1571 50.5481 29.1571ZM48.0214 19.9207H52.9063C52.8502 19.4341 52.7098 19.0223 52.4852 18.6854C52.2793 18.3485 51.9986 18.0865 51.643 17.8994C51.3061 17.7122 50.913 17.6186 50.4639 17.6186C50.0147 17.6186 49.6123 17.7122 49.2567 17.8994C48.9198 18.0865 48.639 18.3485 48.4144 18.6854C48.2086 19.0223 48.0775 19.4341 48.0214 19.9207Z" fill="#09C61C"/>
<path d="M67.6558 29.1571C66.3644 29.1571 65.2133 28.9606 64.2027 28.5675C63.192 28.1558 62.3404 27.6037 61.6479 26.9112C60.9741 26.2187 60.4594 25.4232 60.1038 24.5249C59.7482 23.6265 59.5704 22.6813 59.5704 21.6894C59.5704 20.2669 59.8792 18.9662 60.4969 17.7871C61.1145 16.5892 62.0222 15.6347 63.2201 14.9235C64.4179 14.1936 65.8965 13.8286 67.6558 13.8286C69.4151 13.8286 70.8937 14.1842 72.0915 14.8954C73.2893 15.6066 74.1971 16.5424 74.8147 17.7028C75.4323 18.8632 75.7411 20.1266 75.7411 21.4928C75.7411 21.7736 75.7224 22.0637 75.685 22.3631C75.6663 22.6439 75.6382 22.8966 75.6008 23.1212H65.2414C65.2788 23.6452 65.4192 24.0757 65.6625 24.4126C65.9245 24.7307 66.2427 24.9647 66.617 25.1144C67.0101 25.2641 67.4125 25.339 67.8242 25.339C68.4044 25.339 68.9472 25.208 69.4525 24.946C69.9766 24.6839 70.3228 24.319 70.4913 23.8511L75.0112 25.1425C74.6182 25.9286 74.0661 26.6211 73.3548 27.22C72.6623 27.8189 71.8388 28.2962 70.8843 28.6518C69.9298 28.9887 68.8536 29.1571 67.6558 29.1571ZM65.1291 19.9207H70.014C69.9579 19.4341 69.8175 19.0223 69.5929 18.6854C69.387 18.3485 69.1063 18.0865 68.7507 17.8994C68.4138 17.7122 68.0207 17.6186 67.5716 17.6186C67.1224 17.6186 66.72 17.7122 66.3644 17.8994C66.0275 18.0865 65.7467 18.3485 65.5221 18.6854C65.3163 19.0223 65.1853 19.4341 65.1291 19.9207Z" fill="#09C61C"/>
<path d="M77.38 8.3822H82.7141V23.0089C82.7141 23.5516 82.8264 23.9727 83.051 24.2722C83.2943 24.5529 83.6405 24.6933 84.0897 24.6933C84.3143 24.6933 84.5576 24.6559 84.8196 24.581C85.0817 24.5061 85.325 24.4032 85.5496 24.2722L86.2233 28.2026C85.587 28.502 84.8664 28.736 84.0616 28.9044C83.2756 29.0729 82.5269 29.1571 81.8157 29.1571C80.3933 29.1571 79.2984 28.7921 78.531 28.0622C77.7637 27.3136 77.38 26.2561 77.38 24.8898V8.3822Z" fill="#09C61C"/>
<path d="M87.8367 28.8764V8.94369H96.9889C97.9622 8.94369 98.8605 9.1402 99.684 9.53324C100.508 9.92628 101.219 10.4597 101.818 11.1335C102.417 11.7885 102.875 12.5278 103.193 13.3513C103.53 14.1748 103.699 15.0077 103.699 15.8499C103.699 16.6173 103.586 17.3566 103.362 18.0678C103.137 18.779 102.81 19.4341 102.379 20.033C101.949 20.6132 101.434 21.1185 100.835 21.549L105.046 28.8764H99.0383L95.5291 22.7562H93.3112V28.8764H87.8367ZM93.3112 17.9836H96.7643C96.9889 17.9836 97.2042 17.8994 97.41 17.7309C97.6159 17.5625 97.7844 17.3192 97.9154 17.001C98.0651 16.6828 98.14 16.2991 98.14 15.8499C98.14 15.382 98.0557 14.9984 97.8873 14.6989C97.7376 14.3807 97.541 14.1374 97.2977 13.969C97.0731 13.8005 96.8485 13.7163 96.624 13.7163H93.3112V17.9836Z" fill="#09C61C"/>
<path d="M105.301 24.4126C105.301 23.4206 105.572 22.5503 106.115 21.8017C106.658 21.0343 107.406 20.4354 108.361 20.0049C109.334 19.5744 110.438 19.3592 111.673 19.3592C112.254 19.3592 112.796 19.406 113.302 19.4996C113.826 19.5932 114.275 19.7335 114.649 19.9207V19.4715C114.649 18.779 114.443 18.2643 114.032 17.9274C113.639 17.5905 112.993 17.4221 112.095 17.4221C111.271 17.4221 110.494 17.5625 109.764 17.8432C109.053 18.1052 108.305 18.4983 107.518 19.0223L105.974 15.7096C106.966 15.0732 108.005 14.6053 109.091 14.3059C110.195 13.9877 111.374 13.8286 112.628 13.8286C114.968 13.8286 116.774 14.362 118.046 15.4288C119.338 16.4769 119.983 18.0397 119.983 20.1172V22.9808C119.983 23.4861 120.058 23.8417 120.208 24.0476C120.358 24.2348 120.62 24.3471 120.994 24.3845V28.8764C120.564 28.9699 120.152 29.0354 119.759 29.0729C119.385 29.129 119.048 29.1571 118.748 29.1571C117.794 29.1571 117.064 28.9887 116.558 28.6518C116.072 28.2962 115.754 27.7815 115.604 27.1077L115.492 26.5743C114.837 27.4165 114.078 28.0622 113.218 28.5114C112.357 28.9419 111.44 29.1571 110.466 29.1571C109.493 29.1571 108.613 28.9512 107.827 28.5395C107.041 28.1277 106.424 27.5662 105.974 26.855C105.525 26.1251 105.301 25.3109 105.301 24.4126ZM113.947 24.7775C114.153 24.6278 114.322 24.4687 114.453 24.3003C114.584 24.1131 114.649 23.9259 114.649 23.7388V22.6439C114.35 22.5316 114.004 22.438 113.611 22.3631C113.236 22.2883 112.899 22.2509 112.6 22.2509C111.964 22.2509 111.421 22.4099 110.972 22.7281C110.541 23.0463 110.326 23.4487 110.326 23.9353C110.326 24.1973 110.401 24.4406 110.551 24.6652C110.7 24.8711 110.906 25.0396 111.168 25.1706C111.43 25.2829 111.73 25.339 112.067 25.339C112.385 25.339 112.712 25.2922 113.049 25.1986C113.405 25.0863 113.704 24.946 113.947 24.7775Z" fill="#09C61C"/>
<path d="M125.967 28.8764L120.998 14.1093H126.473L129.112 24.1318L131.779 14.1093H136.748L131.779 28.8764H125.967Z" fill="#09C61C"/>
<path d="M144.915 29.1571C143.623 29.1571 142.472 28.9606 141.462 28.5675C140.451 28.1558 139.599 27.6037 138.907 26.9112C138.233 26.2187 137.718 25.4232 137.363 24.5249C137.007 23.6265 136.829 22.6813 136.829 21.6894C136.829 20.2669 137.138 18.9662 137.756 17.7871C138.373 16.5892 139.281 15.6347 140.479 14.9235C141.677 14.1936 143.155 13.8286 144.915 13.8286C146.674 13.8286 148.153 14.1842 149.35 14.8954C150.548 15.6066 151.456 16.5424 152.074 17.7028C152.691 18.8632 153 20.1266 153 21.4928C153 21.7736 152.981 22.0637 152.944 22.3631C152.925 22.6439 152.897 22.8966 152.86 23.1212H142.5C142.538 23.6452 142.678 24.0757 142.921 24.4126C143.183 24.7307 143.502 24.9647 143.876 25.1144C144.269 25.2641 144.671 25.339 145.083 25.339C145.663 25.339 146.206 25.208 146.711 24.946C147.235 24.6839 147.582 24.319 147.75 23.8511L152.27 25.1425C151.877 25.9286 151.325 26.6211 150.614 27.22C149.921 27.8189 149.098 28.2962 148.143 28.6518C147.189 28.9887 146.112 29.1571 144.915 29.1571ZM142.388 19.9207H147.273C147.217 19.4341 147.076 19.0223 146.852 18.6854C146.646 18.3485 146.365 18.0865 146.01 17.8994C145.673 17.7122 145.28 17.6186 144.83 17.6186C144.381 17.6186 143.979 17.7122 143.623 17.8994C143.286 18.0865 143.006 18.3485 142.781 18.6854C142.575 19.0223 142.444 19.4341 142.388 19.9207Z" fill="#09C61C"/>
<path d="M17.0635 28.4754V0.00012207H30.1381C31.5284 0.00012207 32.8118 0.280864 33.9883 0.842349C35.1647 1.40383 36.1807 2.16585 37.0363 3.12839C37.8919 4.0642 38.547 5.12032 39.0015 6.29676C39.4828 7.4732 39.7234 8.66302 39.7234 9.86619C39.7234 10.9624 39.563 12.0185 39.2421 13.0346C38.9213 14.0506 38.4534 14.9864 37.8384 15.842C37.2235 16.6708 36.4882 17.3927 35.6326 18.0077L41.6485 28.4754H33.0658L28.0526 19.7323H24.8842V28.4754H17.0635ZM24.8842 12.9142H29.8172C30.1381 12.9142 30.4456 12.7939 30.7397 12.5533C31.0338 12.3127 31.2744 11.9651 31.4616 11.5105C31.6755 11.056 31.7824 10.5079 31.7824 9.86619C31.7824 9.19776 31.6621 8.64965 31.4215 8.22185C31.2076 7.76731 30.9268 7.41973 30.5793 7.17909C30.2584 6.93846 29.9376 6.81814 29.6167 6.81814H24.8842V12.9142Z" fill="#09C61C"/>
<path d="M24.585 -2.67029e-05L24.585 28.4752L11.5104 28.4752C10.1201 28.4752 8.83668 28.1945 7.66024 27.633C6.4838 27.0715 5.46778 26.3095 4.61218 25.347C3.75659 24.4111 3.10152 23.355 2.64699 22.1786C2.16572 21.0021 1.92508 19.8123 1.92508 18.6091C1.92508 17.5129 2.08551 16.4568 2.40635 15.4408C2.7272 14.4248 3.1951 13.4889 3.81006 12.6334C4.42502 11.8045 5.1603 11.0826 6.01589 10.4676L-3.23266e-06 -2.88522e-05L8.58268 -2.81018e-05L13.5959 8.74308L16.7643 8.74308L16.7643 -2.73866e-05L24.585 -2.67029e-05ZM16.7643 15.5611L11.8313 15.5611C11.5104 15.5611 11.2029 15.6814 10.9088 15.922C10.6147 16.1627 10.3741 16.5103 10.1869 16.9648C9.97301 17.4193 9.86606 17.9675 9.86606 18.6091C9.86606 19.2776 9.98638 19.8257 10.227 20.2535C10.4409 20.708 10.7217 21.0556 11.0692 21.2962C11.3901 21.5369 11.7109 21.6572 12.0318 21.6572L16.7643 21.6572L16.7643 15.5611Z" fill="#09C61C"/>
</svg>
