<svg width="24" height="24" viewBox="0 0 24 24" fill="none" xmlns="http://www.w3.org/2000/svg">
<path d="M16.1348 0.000446636C14.0031 0.246871 12.7927 2.58457 12.6387 4.61507C12.3869 6.42019 13.1747 8.72356 15.0702 9.13863C16.7129 9.28518 18.0198 7.74156 18.5566 6.26909C19.1906 4.42602 19.2091 1.96476 17.6708 0.583991C17.2435 0.213594 16.6948 -0.0114108 16.1348 0.000446636ZM7.43926 0.0970888C5.66549 0.225434 4.75634 2.28729 4.87972 3.94235C4.8948 6.15531 6.10978 8.64426 8.32539 9.16959C9.97771 9.34832 11.0794 7.59548 11.182 6.06282C11.3929 3.71727 10.3539 0.875883 8.00107 0.167711C7.8182 0.117193 7.62854 0.0921202 7.43926 0.0970888ZM21.6921 7.20394C19.3123 7.37842 17.8073 9.91525 17.7039 12.2076C17.5787 13.7005 18.5429 15.5779 20.1665 15.475C22.5946 15.2176 24.0585 12.5107 23.9982 10.1588C23.9826 8.80479 23.1248 7.26038 21.6921 7.20394ZM0.0184371 10.2985C-0.201913 12.8385 1.5751 15.7095 4.15652 15.8695C5.72112 15.7649 6.45888 13.9473 6.27957 12.5093C6.13668 10.3875 4.71833 8.21471 2.87553 7.93085C1.03273 7.647 -0.0107814 8.94923 0.0184371 10.2985ZM12.2719 12.4653C9.85178 12.471 7.63907 14.0538 6.45609 16.1953C5.46494 17.7957 4.65466 19.6075 4.50055 21.5195C4.53427 22.994 5.94087 24.2213 7.35132 23.9276C9.36313 23.6664 11.1609 22.2689 13.2529 22.5308C14.9915 22.6696 16.4253 24.0181 18.1807 23.9985C19.8851 24.0625 20.8684 22.1088 20.2184 20.5786C19.5189 18.3877 18.1628 16.4822 16.7073 14.766C15.5463 13.501 14.0256 12.4093 12.2719 12.4653Z" fill="#09C61C"/>
</svg>
