<svg width="30" height="30" viewBox="0 0 30 30" fill="none" xmlns="http://www.w3.org/2000/svg">
<path fill-rule="evenodd" clip-rule="evenodd" d="M21 0C21.3978 0 21.7794 0.158035 22.0607 0.43934L29.5607 7.93934C29.842 8.22064 30 8.60218 30 9V19.5C30 19.8509 29.877 20.1907 29.6523 20.4603L22.1523 29.4603C21.8673 29.8023 21.4452 30 21 30H9C8.60218 30 8.22064 29.842 7.93934 29.5607L0.43934 22.0607C0.158035 21.7794 0 21.3978 0 21V9C0 8.60218 0.158035 8.22064 0.43934 7.93934L7.93934 0.43934C8.22064 0.158035 8.60218 0 9 0H21ZM20.3787 3H9.62132L3 9.62132V20.3787L9.62132 27H20.2974L27 18.9569V9.62132L20.3787 3ZM15 21C15.8284 21 16.5 21.6716 16.5 22.5C16.5 23.3284 15.8284 24 15 24C14.1716 24 13.5 23.3284 13.5 22.5C13.5 21.6716 14.1716 21 15 21ZM15 6C15.8284 6 16.5 6.67157 16.5 7.5V16.5C16.5 17.3284 15.8284 18 15 18C14.1716 18 13.5 17.3284 13.5 16.5V7.5C13.5 6.67157 14.1716 6 15 6Z" fill="#09C61C"/>
</svg>
