<svg width="19" height="18" viewBox="0 0 19 18" fill="none" xmlns="http://www.w3.org/2000/svg">
<path d="M18.7553 16.608L13.9539 12.0811C15.2083 10.5984 15.8157 8.71649 15.6513 6.82228C15.487 4.92808 14.5633 3.16556 13.0704 1.89713C11.5774 0.62871 9.62847 -0.0492043 7.62444 0.00278348C5.62041 0.0547713 3.71355 0.83271 2.29595 2.17664C0.878355 3.52057 0.0577736 5.32834 0.00293605 7.22823C-0.0519015 9.12812 0.663173 10.9757 2.00112 12.3911C3.33908 13.8066 5.19821 14.6822 7.19624 14.838C9.19428 14.9938 11.1793 14.4179 12.7433 13.2288L17.5185 17.7558C17.5994 17.8331 17.6958 17.8946 17.8019 17.9365C17.908 17.9784 18.0219 18 18.1369 18C18.2518 18 18.3657 17.9784 18.4718 17.9365C18.578 17.8946 18.6743 17.8331 18.7553 17.7558C18.9122 17.6018 19 17.396 19 17.1819C19 16.9677 18.9122 16.762 18.7553 16.608ZM7.85706 13.2288C6.65121 13.2288 5.47244 12.8898 4.46981 12.2547C3.46718 11.6196 2.68573 10.7169 2.22427 9.66069C1.76281 8.60452 1.64207 7.44235 1.87732 6.32113C2.11257 5.19991 2.69324 4.17 3.54591 3.36164C4.39857 2.55329 5.48494 2.00279 6.66762 1.77976C7.8503 1.55674 9.07618 1.6712 10.1902 2.10868C11.3043 2.54616 12.2565 3.28701 12.9264 4.23753C13.5964 5.18806 13.9539 6.30557 13.9539 7.44876C13.9539 8.98173 13.3116 10.4519 12.1682 11.5359C11.0248 12.6198 9.47406 13.2288 7.85706 13.2288Z" fill="black"/>
</svg>
