<svg width="35" height="35" viewBox="0 0 35 35" fill="none" xmlns="http://www.w3.org/2000/svg">
<path d="M33.81 13.2125L30.5025 12.11L32.06 8.995C32.2179 8.66895 32.2707 8.30194 32.2111 7.94461C32.1516 7.58727 31.9826 7.25722 31.7275 7L28 3.2725C27.7414 3.01366 27.4082 2.84237 27.0472 2.78272C26.6862 2.72308 26.3156 2.77809 25.9875 2.94001L22.8725 4.4975L21.77 1.19001C21.6536 0.845242 21.4325 0.545351 21.1377 0.332065C20.8429 0.118779 20.4889 0.00270843 20.125 5.83369e-06H14.875C14.5081 -0.000941199 14.1502 0.113439 13.8519 0.326979C13.5536 0.540519 13.3299 0.842419 13.2125 1.19001L12.11 4.4975L8.995 2.94001C8.66895 2.78212 8.30194 2.72931 7.94461 2.78887C7.58727 2.84842 7.25722 3.01741 7 3.2725L3.2725 7C3.01366 7.25859 2.84237 7.59181 2.78272 7.9528C2.72308 8.31379 2.77809 8.6844 2.94001 9.0125L4.4975 12.1275L1.19001 13.23C0.845242 13.3464 0.545351 13.5675 0.332065 13.8623C0.118779 14.1571 0.00270843 14.5111 5.83369e-06 14.875V20.125C-0.000941199 20.4919 0.113439 20.8498 0.326979 21.1481C0.540519 21.4464 0.842419 21.6701 1.19001 21.7875L4.4975 22.89L2.94001 26.005C2.78212 26.331 2.72931 26.6981 2.78887 27.0554C2.84842 27.4127 3.01741 27.7428 3.2725 28L7 31.7275C7.25859 31.9863 7.59181 32.1576 7.9528 32.2173C8.31379 32.2769 8.6844 32.2219 9.0125 32.06L12.1275 30.5025L13.23 33.81C13.3474 34.1576 13.5711 34.4595 13.8694 34.673C14.1677 34.8866 14.5256 35.0009 14.8925 35H20.1425C20.5094 35.0009 20.8673 34.8866 21.1656 34.673C21.4639 34.4595 21.6876 34.1576 21.805 33.81L22.9075 30.5025L26.0225 32.06C26.3465 32.2139 26.7099 32.2645 27.0636 32.2051C27.4173 32.1456 27.7442 31.9789 28 31.7275L31.7275 28C31.9863 27.7414 32.1576 27.4082 32.2173 27.0472C32.2769 26.6862 32.2219 26.3156 32.06 25.9875L30.5025 22.8725L33.81 21.77C34.1548 21.6536 34.4547 21.4325 34.6679 21.1377C34.8812 20.8429 34.9973 20.4889 35 20.125V14.875C35.0009 14.5081 34.8866 14.1502 34.673 13.8519C34.4595 13.5536 34.1576 13.3299 33.81 13.2125ZM31.5 18.865L29.4 19.565C28.9171 19.7216 28.4741 19.9815 28.1016 20.3264C27.7291 20.6714 27.4362 21.0933 27.2431 21.5628C27.0499 22.0323 26.9612 22.5382 26.9832 23.0454C27.0051 23.5526 27.1371 24.0489 27.37 24.5L28.3675 26.495L26.4425 28.42L24.5 27.37C24.0512 27.1464 23.5596 27.0219 23.0585 27.0048C22.5574 26.9877 22.0585 27.0784 21.5956 27.2709C21.1326 27.4634 20.7164 27.7531 20.3751 28.1205C20.0338 28.4878 19.7755 28.9241 19.6175 29.4L18.9175 31.5H16.135L15.435 29.4C15.2784 28.9171 15.0185 28.4741 14.6736 28.1016C14.3286 27.7291 13.9067 27.4362 13.4372 27.2431C12.9677 27.0499 12.4618 26.9612 11.9546 26.9832C11.4474 27.0051 10.9511 27.1371 10.5 27.37L8.505 28.3675L6.58 26.4425L7.63 24.5C7.86292 24.0489 7.99491 23.5526 8.01683 23.0454C8.03875 22.5382 7.95007 22.0323 7.75695 21.5628C7.56382 21.0933 7.27086 20.6714 6.89841 20.3264C6.52595 19.9815 6.08291 19.7216 5.6 19.565L3.5 18.865V16.135L5.6 15.435C6.08291 15.2784 6.52595 15.0185 6.89841 14.6736C7.27086 14.3286 7.56382 13.9067 7.75695 13.4372C7.95007 12.9677 8.03875 12.4618 8.01683 11.9546C7.99491 11.4474 7.86292 10.9511 7.63 10.5L6.6325 8.5575L8.5575 6.6325L10.5 7.63C10.9511 7.86292 11.4474 7.99491 11.9546 8.01683C12.4618 8.03875 12.9677 7.95007 13.4372 7.75695C13.9067 7.56382 14.3286 7.27086 14.6736 6.89841C15.0185 6.52595 15.2784 6.08291 15.435 5.6L16.135 3.5H18.865L19.565 5.6C19.7216 6.08291 19.9815 6.52595 20.3264 6.89841C20.6714 7.27086 21.0933 7.56382 21.5628 7.75695C22.0323 7.95007 22.5382 8.03875 23.0454 8.01683C23.5526 7.99491 24.0489 7.86292 24.5 7.63L26.495 6.6325L28.42 8.5575L27.37 10.5C27.1464 10.9488 27.0219 11.4404 27.0048 11.9415C26.9877 12.4426 27.0784 12.9415 27.2709 13.4044C27.4634 13.8674 27.7531 14.2836 28.1205 14.6249C28.4878 14.9662 28.9241 15.2245 29.4 15.3825L31.5 16.0825V18.865ZM17.5 10.5C16.1155 10.5 14.7622 10.9105 13.611 11.6797C12.4599 12.4489 11.5627 13.5421 11.0328 14.8212C10.503 16.1003 10.3644 17.5078 10.6345 18.8656C10.9046 20.2235 11.5713 21.4708 12.5503 22.4497C13.5292 23.4287 14.7765 24.0954 16.1344 24.3655C17.4922 24.6356 18.8997 24.497 20.1788 23.9672C21.4579 23.4373 22.5511 22.5401 23.3203 21.389C24.0895 20.2378 24.5 18.8845 24.5 17.5C24.5 15.6435 23.7625 13.863 22.4497 12.5503C21.137 11.2375 19.3565 10.5 17.5 10.5ZM17.5 21C16.8078 21 16.1311 20.7947 15.5555 20.4101C14.9799 20.0256 14.5313 19.4789 14.2664 18.8394C14.0015 18.1999 13.9322 17.4961 14.0673 16.8172C14.2023 16.1383 14.5356 15.5146 15.0251 15.0251C15.5146 14.5356 16.1383 14.2023 16.8172 14.0673C17.4961 13.9322 18.1999 14.0015 18.8394 14.2664C19.4789 14.5313 20.0256 14.9799 20.4101 15.5555C20.7947 16.1311 21 16.8078 21 17.5C21 18.4283 20.6313 19.3185 19.9749 19.9749C19.3185 20.6313 18.4283 21 17.5 21Z" fill="#09C61C"/>
</svg>
