<svg width="30" height="30" viewBox="0 0 30 30" fill="none" xmlns="http://www.w3.org/2000/svg">
<path d="M24.0019 18.0194C23.116 18.0252 22.2423 18.227 21.4438 18.6102C20.6452 18.9935 19.9416 19.5486 19.3834 20.2358L11.7359 16.7165C12.0955 15.6169 12.0955 14.4316 11.7359 13.332L19.3834 9.81264C20.2856 10.8998 21.5433 11.6338 22.9345 11.885C24.3258 12.1363 25.7612 11.8886 26.9874 11.1858C28.2136 10.4829 29.1518 9.37007 29.6364 8.04362C30.121 6.71716 30.1209 5.26237 29.6361 3.93601C29.1512 2.60964 28.2128 1.49696 26.9865 0.794329C25.7601 0.0917033 24.3247 -0.155697 22.9334 0.0957922C21.5422 0.347281 20.2847 1.08149 19.3827 2.16885C18.4808 3.2562 17.9925 4.6268 18.0039 6.03875C18.0084 6.39552 18.0435 6.75125 18.1089 7.10203L10.1914 10.7411C9.34733 9.91684 8.27842 9.35965 7.11864 9.13937C5.95886 8.9191 4.75978 9.04553 3.67163 9.50284C2.58348 9.96015 1.65465 10.728 1.00152 11.7102C0.34839 12.6923 0 13.8452 0 15.0242C0 16.2033 0.34839 17.3561 1.00152 18.3383C1.65465 19.3204 2.58348 20.0883 3.67163 20.5456C4.75978 21.0029 5.95886 21.1293 7.11864 20.9091C8.27842 20.6888 9.34733 20.1316 10.1914 19.3073L18.1089 22.9464C18.0435 23.2972 18.0084 23.6529 18.0039 24.0097C18.0039 25.1945 18.3557 26.3526 19.0148 27.3377C19.6738 28.3228 20.6106 29.0906 21.7066 29.544C22.8026 29.9974 24.0086 30.116 25.1721 29.8849C26.3356 29.6538 27.4044 29.0832 28.2432 28.2455C29.0821 27.4077 29.6533 26.3403 29.8847 25.1783C30.1162 24.0163 29.9974 22.8119 29.5434 21.7173C29.0894 20.6227 28.3207 19.6871 27.3343 19.0289C26.3479 18.3707 25.1882 18.0194 24.0019 18.0194ZM24.0019 3.04359C24.5951 3.04359 25.1749 3.21925 25.6681 3.54836C26.1613 3.87748 26.5457 4.34526 26.7727 4.89255C26.9997 5.43984 27.0591 6.04207 26.9433 6.62307C26.8276 7.20408 26.542 7.73776 26.1226 8.15664C25.7032 8.57552 25.1688 8.86078 24.587 8.97635C24.0053 9.09192 23.4023 9.03261 22.8543 8.80591C22.3063 8.57921 21.8379 8.19532 21.5083 7.70276C21.1788 7.21021 21.0029 6.63113 21.0029 6.03875C21.0029 5.24438 21.3189 4.48255 21.8813 3.92085C22.4437 3.35915 23.2066 3.04359 24.0019 3.04359ZM6.00779 18.0194C5.41464 18.0194 4.83481 17.8437 4.34163 17.5146C3.84844 17.1855 3.46405 16.7177 3.23706 16.1704C3.01007 15.6231 2.95068 15.0209 3.06639 14.4399C3.18211 13.8589 3.46774 13.3252 3.88716 12.9063C4.30658 12.4874 4.84096 12.2022 5.42271 12.0866C6.00447 11.971 6.60747 12.0304 7.15547 12.2571C7.70347 12.4837 8.17185 12.8676 8.50139 13.3602C8.83093 13.8527 9.00682 14.4318 9.00682 15.0242C9.00682 15.8186 8.69085 16.5804 8.12843 17.1421C7.566 17.7038 6.80319 18.0194 6.00779 18.0194ZM24.0019 27.0048C23.4088 27.0048 22.829 26.8292 22.3358 26.5001C21.8426 26.171 21.4582 25.7032 21.2312 25.1559C21.0042 24.6086 20.9448 24.0064 21.0605 23.4254C21.1763 22.8444 21.4619 22.3107 21.8813 21.8918C22.3007 21.4729 22.8351 21.1876 23.4169 21.0721C23.9986 20.9565 24.6016 21.0158 25.1496 21.2425C25.6976 21.4692 26.166 21.8531 26.4955 22.3457C26.8251 22.8382 27.001 23.4173 27.001 24.0097C27.001 24.804 26.685 25.5659 26.1226 26.1276C25.5602 26.6893 24.7973 27.0048 24.0019 27.0048Z" fill="#09C61C"/>
</svg>
