<svg width="20" height="20" viewBox="0 0 20 20" fill="none" xmlns="http://www.w3.org/2000/svg">
<path d="M12.36 12.23C11.6915 12.769 10.8587 13.0629 10 13.0629C9.14131 13.0629 8.30849 12.769 7.64 12.23C7.43579 12.0603 7.17251 11.9786 6.90808 12.003C6.64365 12.0274 6.39974 12.1558 6.23 12.36C6.06027 12.5642 5.9786 12.8275 6.00298 13.0919C6.02736 13.3564 6.15579 13.6003 6.36 13.77C7.38134 14.6226 8.66957 15.0896 10 15.0896C11.3304 15.0896 12.6187 14.6226 13.64 13.77C13.8442 13.6003 13.9726 13.3564 13.997 13.0919C14.0214 12.8275 13.9397 12.5642 13.77 12.36C13.686 12.2589 13.5828 12.1753 13.4665 12.1141C13.3501 12.0528 13.2229 12.0151 13.0919 12.003C12.8275 11.9786 12.5642 12.0603 12.36 12.23ZM7 9.71L7.29 9.41L7.58 9.71C7.67297 9.80373 7.78357 9.87812 7.90543 9.92889C8.02729 9.97966 8.15799 10.0058 8.29 10.0058C8.42202 10.0058 8.55272 9.97966 8.67458 9.92889C8.79644 9.87812 8.90704 9.80373 9 9.71C9.09373 9.61704 9.16813 9.50644 9.2189 9.38458C9.26966 9.26272 9.2958 9.13201 9.2958 9C9.2958 8.86799 9.26966 8.73728 9.2189 8.61542C9.16813 8.49356 9.09373 8.38296 9 8.29L8.7 8L9 7.71C9.18831 7.51639 9.29199 7.25591 9.28824 6.98586C9.28449 6.71581 9.17361 6.4583 8.98 6.27C8.7864 6.0817 8.52591 5.97802 8.25586 5.98177C7.98581 5.98552 7.72831 6.09639 7.54 6.29L7.25 6.59L7 6.29C6.8117 6.09639 6.5542 5.98552 6.28415 5.98177C6.01409 5.97802 5.75361 6.0817 5.56 6.27C5.3664 6.4583 5.25552 6.71581 5.25177 6.98586C5.24802 7.25591 5.3517 7.51639 5.54 7.71L5.84 8L5.54 8.29C5.44628 8.38296 5.37188 8.49356 5.32111 8.61542C5.27034 8.73728 5.24421 8.86799 5.24421 9C5.24421 9.13201 5.27034 9.26272 5.32111 9.38458C5.37188 9.50644 5.44628 9.61704 5.54 9.71C5.63297 9.80373 5.74357 9.87812 5.86543 9.92889C5.98729 9.97966 6.11799 10.0058 6.25 10.0058C6.38202 10.0058 6.51272 9.97966 6.63458 9.92889C6.75644 9.87812 6.86704 9.80373 6.96 9.71H7ZM10 0C8.02219 0 6.08879 0.58649 4.4443 1.6853C2.79981 2.78412 1.51809 4.3459 0.761209 6.17317C0.00433284 8.00043 -0.193701 10.0111 0.192152 11.9509C0.578004 13.8907 1.53041 15.6725 2.92894 17.0711C4.32746 18.4696 6.10929 19.422 8.0491 19.8079C9.98891 20.1937 11.9996 19.9957 13.8268 19.2388C15.6541 18.4819 17.2159 17.2002 18.3147 15.5557C19.4135 13.9112 20 11.9778 20 10C20 8.68678 19.7413 7.38642 19.2388 6.17317C18.7363 4.95991 17.9997 3.85752 17.0711 2.92893C16.1425 2.00035 15.0401 1.26375 13.8268 0.761205C12.6136 0.258658 11.3132 0 10 0ZM10 18C8.41775 18 6.87104 17.5308 5.55544 16.6518C4.23985 15.7727 3.21447 14.5233 2.60897 13.0615C2.00347 11.5997 1.84504 9.99113 2.15372 8.43928C2.4624 6.88743 3.22433 5.46197 4.34315 4.34315C5.46197 3.22433 6.88743 2.4624 8.43928 2.15372C9.99113 1.84504 11.5997 2.00346 13.0615 2.60896C14.5233 3.21447 15.7727 4.23984 16.6518 5.55544C17.5308 6.87103 18 8.41775 18 10C18 12.1217 17.1572 14.1566 15.6569 15.6569C14.1566 17.1571 12.1217 18 10 18ZM15 6.29C14.907 6.19627 14.7964 6.12188 14.6746 6.07111C14.5527 6.02034 14.422 5.9942 14.29 5.9942C14.158 5.9942 14.0273 6.02034 13.9054 6.07111C13.7836 6.12188 13.673 6.19627 13.58 6.29L13.29 6.59L13 6.29C12.8117 6.1017 12.5563 5.99591 12.29 5.99591C12.0237 5.99591 11.7683 6.1017 11.58 6.29C11.3917 6.4783 11.2859 6.7337 11.2859 7C11.2859 7.2663 11.3917 7.5217 11.58 7.71L11.88 8L11.58 8.29C11.4863 8.38296 11.4119 8.49356 11.3611 8.61542C11.3103 8.73728 11.2842 8.86799 11.2842 9C11.2842 9.13201 11.3103 9.26272 11.3611 9.38458C11.4119 9.50644 11.4863 9.61704 11.58 9.71C11.673 9.80373 11.7836 9.87812 11.9054 9.92889C12.0273 9.97966 12.158 10.0058 12.29 10.0058C12.422 10.0058 12.5527 9.97966 12.6746 9.92889C12.7964 9.87812 12.907 9.80373 13 9.71L13.29 9.41L13.58 9.71C13.673 9.80373 13.7836 9.87812 13.9054 9.92889C14.0273 9.97966 14.158 10.0058 14.29 10.0058C14.422 10.0058 14.5527 9.97966 14.6746 9.92889C14.7964 9.87812 14.907 9.80373 15 9.71C15.0937 9.61704 15.1681 9.50644 15.2189 9.38458C15.2697 9.26272 15.2958 9.13201 15.2958 9C15.2958 8.86799 15.2697 8.73728 15.2189 8.61542C15.1681 8.49356 15.0937 8.38296 15 8.29L14.7 8L15 7.71C15.0937 7.61704 15.1681 7.50644 15.2189 7.38458C15.2697 7.26272 15.2958 7.13201 15.2958 7C15.2958 6.86799 15.2697 6.73728 15.2189 6.61542C15.1681 6.49356 15.0937 6.38296 15 6.29Z" fill="#09C61C"/>
</svg>
