<svg width="24" height="24" viewBox="0 0 24 24" fill="none" xmlns="http://www.w3.org/2000/svg">
<path d="M11.9821 0C9.97196 0.00205619 7.99447 0.508172 6.23054 1.47204C4.4666 2.4359 2.97255 3.82673 1.88509 5.51727C0.355595 7.91597 -0.273566 10.7794 0.109492 13.5983C0.49255 16.4172 1.863 19.0089 3.97712 20.9125C6.09123 22.8161 8.81198 23.9081 11.6555 23.9945C14.499 24.0808 17.281 23.1558 19.5067 21.3839C21.4438 19.8247 22.8497 17.7032 23.5306 15.3115C24.2115 12.9199 24.1338 10.376 23.3084 8.0303C22.483 5.68463 20.9505 3.65267 18.9219 2.21445C16.8934 0.776235 14.4687 0.00254453 11.9821 0ZM14.3861 2.71657C16.0471 3.14652 17.5628 4.01304 18.776 5.22625C19.9892 6.43946 20.8557 7.95517 21.2857 9.61616C19.2759 9.67276 17.3142 10.2439 15.5881 11.2749C14.7214 10.2917 13.7545 9.40138 12.7033 8.61848C13.7624 6.82863 14.342 4.79585 14.3861 2.71657ZM11.9821 2.40404C11.9781 4.12897 11.5044 5.82025 10.6118 7.29626C10.4314 7.2001 10.2632 7.09192 10.0829 7.00778C8.5351 6.19111 6.88012 5.59629 5.1666 5.24081C6.05976 4.34232 7.12165 3.62918 8.29127 3.14235C9.46088 2.65553 10.7152 2.40462 11.9821 2.40404ZM3.56792 7.40444C5.45319 7.66634 7.27905 8.25192 8.96498 9.13535L9.12125 9.23151C8.23405 10.1179 7.18066 10.8205 6.02145 11.299C4.86224 11.7775 3.61999 12.0226 2.3659 12.0202C2.37258 10.4051 2.78597 8.81767 3.56792 7.40444ZM9.57802 21.3238C7.91702 20.8939 6.40131 20.0274 5.1881 18.8142C3.97489 17.6009 3.10837 16.0852 2.67842 14.4242C4.2839 14.3886 5.86556 14.0284 7.32813 13.3652C8.79071 12.7021 10.1039 11.7499 11.1887 10.5658C12.0577 11.2081 12.8627 11.9327 13.5928 12.7294C12.3756 13.8147 11.3919 15.1363 10.7017 16.6138C10.0115 18.0914 9.62921 19.6939 9.57802 21.3238ZM11.9821 21.6364C11.9846 20.3158 12.2592 19.0099 12.7886 17.8001C13.318 16.5903 14.091 15.5025 15.0592 14.6045C15.1313 14.7007 15.2035 14.7848 15.2636 14.881C16.2709 16.4235 17.018 18.1209 17.4753 19.9055C15.8665 21.035 13.9478 21.6396 11.9821 21.6364ZM19.4466 18.0303C18.9246 16.44 18.1972 14.9247 17.283 13.5227L17.0305 13.2222C18.4281 12.4447 19.9989 12.0313 21.5982 12.0202C21.5863 14.2101 20.8272 16.3304 19.4466 18.0303Z" fill="#09C61C"/>
</svg>
